<?xml version="1.0" encoding="UTF-8"?>
<svg id="Capa_1" xmlns="http://www.w3.org/2000/svg" version="1.1" xmlns:xlink="http://www.w3.org/1999/xlink" viewBox="0 0 400 400">
  <!-- Generator: Adobe Illustrator 30.2.1, SVG Export Plug-In . SVG Version: 2.1.1 Build 1)  -->
  <defs>
    <style>
      .st0 {
        fill: #f72585;
      }

      .st1 {
        fill: none;
      }

      .st2 {
        clip-path: url(#clippath);
      }
    </style>
    <clipPath id="clippath">
      <polygon class="st1" points="200 72.62 273.54 200 347.09 327.38 200 327.38 52.91 327.38 126.46 200 200 72.62"/>
    </clipPath>
  </defs>
  <g class="st2">
    <path class="st0" d="M35.59,197.85c-15.94,57.89-2.07,110.27,41.23,155.68,47,49.29,120.23,64.18,186.55,37.94,67.04-26.53,114.67-92.97,115.84-161.59,1.52-89.12-55.69-162.63-142.35-182.92-18.86-4.42-37.94-5.75-56.71-3.98-10.57,1-14.8,4.61-14.17,12.07.65,7.67,5.86,9.09,15.3,9.01,3.46-.03,6.91-.02,10.37-.01h2.73s.03-.72.03-.72l2.04.12c2.65.16,5.38.25,8.01.34,5.75.2,11.69.4,17.5,1.27,86.01,12.83,146.51,93.03,134.87,178.77-10.94,80.63-80.11,139.63-159,139.63-6.76,0-13.59-.43-20.47-1.32-67.72-8.77-121.9-64.59-126.03-129.84-2.27-35.9,7.01-69.6,26.85-97.46,19.85-27.87,48.33-47.19,82.36-55.87,45.39-11.58,92.2-.31,125.22,30.14,32.27,29.76,46.45,72.21,38.9,116.46-5.79,33.96-26.24,64.99-56.11,85.14-28.72,19.38-63.3,26.53-94.88,19.64-53.29-11.63-88.3-52.58-91.38-106.86-1.27-22.42,4.75-45.38,16.94-64.67,13.3-21.03,33.36-37.13,57.99-46.57,27.19-10.41,57.65-9.14,83.57,3.5,24.36,11.88,41.99,32.13,49.63,57.03,8.35,27.21,5.53,55.21-7.95,78.84-13.55,23.77-36.4,40.57-64.33,47.3-7.05,1.7-14.09,2.52-20.98,2.52-37.79,0-71.32-24.54-80.99-62.15-5.5-21.39-2.38-43.43,8.79-62.07,11.2-18.7,29.49-32.27,51.52-38.22,26.84-7.25,50.61-.89,68.75,18.39,18.33,19.49,23.27,43.55,14.26,69.56-6.89,19.92-23.74,35.24-45.07,40.98-19.24,5.17-38.06,1.41-51.65-10.33-18.31-15.82-22.83-42.99-10.74-64.62,10.86-19.43,35.81-30.04,55.62-23.63,14.94,4.83,25.53,20.18,24.63,35.71-.95,16.4-13.34,30.92-28.83,33.79-11.75,2.17-22.31-3.39-25.67-13.54-3.14-9.48.08-17.79,9.3-24.03,5.96-4.03,9.04-1.37,10.09-.04,1.08,1.37,1.49,2.72,1.24,4.02-.41,2.08-2.3,3.13-3.81,3.99-.43.24-.83.47-1.13.67-6.3,4.44-7.62,8.73-4.27,13.92,3.47,5.38,8.57,6.48,16.02,3.48,11.32-4.56,18.55-17.32,16.1-28.45-2.81-12.8-14.63-21.9-27.45-21.14-19.86,1.15-37.5,20.05-37.74,40.44-.26,21.51,15.32,39.22,36.22,41.2,14.11,1.33,28.88-3.47,40.53-13.19,11.27-9.4,18.4-22.46,19.56-35.84,1.43-16.52-3.65-32.85-13.94-44.79-9.42-10.94-22.42-17.45-36.6-18.34-29.51-1.85-52.05,9.9-67.03,34.91-15.44,25.79-14.93,52.17,1.49,76.28,16.77,24.64,40.89,35.77,69.74,32.21,23.95-2.96,46.12-15.73,60.84-35.03,14.31-18.78,20.38-41.5,17.1-63.98-3.46-23.67-15.94-44.43-35.14-58.44-19.21-14.03-43.1-19.8-67.26-16.27-43.93,6.42-80.71,42.17-87.44,85-7.34,46.69,14.61,89.4,55.92,108.8,44.11,20.72,86.99,13.81,127.44-20.53,24.11-20.47,38.1-51.94,38.37-86.32.27-34.21-13.11-65.69-36.71-86.37-42.41-37.17-98.71-43.46-146.94-16.44-50.78,28.46-78.67,84.09-69.39,138.43,12.72,74.54,77.57,121.74,154.23,112.23,39.84-4.95,76.71-26.9,101.14-60.24,24.37-33.24,34.2-74.85,26.96-114.15-7.78-42.27-31.56-77.85-66.94-100.2-24.36-15.38-52.17-23.25-80.99-23.25-14.22,0-28.68,1.91-43.09,5.78-61.65,16.54-101.56,56.33-118.61,118.25Z"/>
  </g>
</svg>